<?xml version="1.0" standalone="no"?>
<!DOCTYPE svg PUBLIC "-//W3C//DTD SVG 20010904//EN"
 "http://www.w3.org/TR/2001/REC-SVG-20010904/DTD/svg10.dtd">
<svg version="1.0" xmlns="http://www.w3.org/2000/svg"
 width="500.000000pt" height="500.000000pt" viewBox="0 0 500.000000 500.000000"
 preserveAspectRatio="xMidYMid meet">

<g transform="translate(0.000000,500.000000) scale(0.100000,-0.100000)"
fill="#176B87" stroke="none">
<path d="M723 3763 l-83 -4 0 -632 c0 -536 2 -642 15 -692 49 -185 193 -325
383 -370 217 -52 456 57 562 257 l32 60 25 -48 c69 -136 185 -231 329 -268 34
-9 78 -16 98 -16 l36 0 0 115 0 115 -37 0 c-83 0 -193 81 -231 169 -9 21 -16
65 -16 106 0 56 5 80 27 121 64 125 210 183 339 135 55 -21 125 -78 148 -120
11 -21 9 -21 -120 -21 l-130 0 0 -115 0 -115 380 0 380 0 0 -195 0 -195 115 0
115 0 0 195 0 195 95 0 c82 0 95 -2 95 -16 0 -9 16 -50 36 -91 120 -251 431
-355 677 -228 l47 25 0 -40 0 -40 115 0 115 0 0 275 c0 166 -4 295 -11 327
-57 267 -316 444 -577 395 -44 -9 -108 -30 -142 -47 -112 -57 -218 -178 -251
-287 l-12 -43 -94 0 -93 0 0 385 0 385 -115 0 -115 0 0 -385 0 -385 -130 0
c-116 0 -131 2 -136 18 -3 9 -19 46 -36 82 -83 177 -250 282 -448 282 -188 0
-349 -94 -441 -258 l-32 -56 -31 58 c-129 242 -419 344 -663 234 -36 -16 -67
-30 -69 -30 -2 0 -4 171 -4 379 0 406 1 395 -48 389 -9 -1 -54 -4 -99 -5z
m498 -928 c20 -3 61 -23 91 -44 182 -131 145 -411 -65 -489 -72 -27 -121 -28
-190 -2 -69 26 -126 75 -157 136 -20 40 -25 63 -25 129 0 71 3 86 31 135 39
69 108 120 183 136 31 7 65 10 76 8 11 -1 36 -5 56 -9z m2641 -25 c183 -68
237 -306 102 -445 -57 -59 -118 -85 -199 -85 -106 0 -189 49 -239 140 -122
224 98 479 336 390z"/>
<path d="M2860 1855 l0 -145 705 0 705 0 0 145 0 145 -705 0 -705 0 0 -145z
m160 35 c0 -6 -7 -13 -15 -16 -12 -5 -10 -10 8 -24 18 -15 20 -22 11 -37 -14
-24 -74 -31 -74 -9 0 10 9 16 23 17 l22 0 -22 11 c-22 11 -31 46 -16 61 10 11
63 8 63 -3z m188 -2 c7 -7 12 -26 12 -43 0 -39 -16 -55 -55 -55 -39 0 -55 16
-55 55 0 39 16 55 55 55 17 0 36 -5 43 -12z m132 -28 c0 -33 3 -40 20 -40 11
0 20 -7 20 -15 0 -10 -11 -15 -35 -15 l-35 0 0 55 c0 42 3 55 15 55 11 0 15
-11 15 -40z m152 3 c4 -52 28 -56 28 -4 0 34 3 41 20 41 16 0 20 -7 20 -36 0
-54 -15 -74 -56 -74 -27 0 -36 5 -44 24 -7 19 -7 59 -1 84 1 1 7 2 15 2 10 0
16 -13 18 -37z m228 22 c0 -8 -7 -15 -15 -15 -11 0 -15 -11 -15 -40 0 -29 -4
-40 -15 -40 -11 0 -15 11 -15 40 0 22 -4 40 -10 40 -5 0 -10 7 -10 15 0 11 11
15 40 15 29 0 40 -4 40 -15z m110 -40 c0 -42 -3 -55 -15 -55 -12 0 -15 13 -15
55 0 42 3 55 15 55 12 0 15 -13 15 -55z m190 40 c7 -8 13 -26 13 -40 0 -36
-21 -55 -57 -55 -40 0 -56 16 -56 55 0 17 5 36 12 43 17 17 73 15 88 -3z m137
-7 l23 -21 0 21 c0 15 6 22 20 22 18 0 20 -7 20 -55 0 -30 -3 -55 -6 -55 -3 0
-18 9 -32 21 l-27 21 -3 -21 c-2 -12 -10 -21 -18 -21 -10 0 -14 14 -14 55 0
30 3 55 7 55 4 0 17 -10 30 -22z"/>
<path d="M3144 1855 c-4 -9 -2 -21 4 -27 15 -15 44 -1 40 19 -4 23 -36 29 -44
8z"/>
<path d="M3954 1855 c-4 -9 -2 -21 4 -27 15 -15 44 -1 40 19 -4 23 -36 29 -44
8z"/>
</g>
</svg>
